# xmcd CD database file
#
# Track frame offsets:
#	150
#	19025
#	40504
#	67496
#	91099
#	111069
#	135266
#	163300
#	200151
#	221260
#	245246
#	268421
#
# Disc length: 3749 seconds
#
# Revision: 0
# Processed by: cddbd v1.5.2PL0 Copyright (c) Steve Scherf et al.
# Submitted via: CDex 1.51
#
DISCID=b20ea30c
DTITLE=David Arnay - Daddy's Groove
DYEAR=1997
DGENRE=Jazz
TTITLE0=Daddy's Groove
TTITLE1=Hands Down
TTITLE2=Ostinato 96
TTITLE3=The Mighty Dollar
TTITLE4=Lost And Found
TTITLE5=Home Again
TTITLE6=Alta Moda
TTITLE7=Like 'Trane
TTITLE8=Double Take
TTITLE9=The Youngster
TTITLE10=B.Y.O. Blues
TTITLE11=And When It's Over
EXTD=YEAR: 1997
EXTT0=
EXTT1=
EXTT2=
EXTT3=
EXTT4=
EXTT5=
EXTT6=
EXTT7=
EXTT8=
EXTT9=
EXTT10=
EXTT11=
PLAYORDER=
